<svg xmlns="http://www.w3.org/2000/svg" viewBox="0 0 520 360" role="img" aria-labelledby="t"><title id="t">Roulette wheel scene</title><defs><linearGradient id="bg" x1="0" y1="0" x2="1" y2="1"><stop stop-color="#180A18"/><stop offset="1" stop-color="#090A14"/></linearGradient><radialGradient id="gold"><stop stop-color="#FFF0A8"/><stop offset=".5" stop-color="#D8A941"/><stop offset="1" stop-color="#754817"/></radialGradient><filter id="s"><feDropShadow dx="0" dy="24" stdDeviation="19" flood-color="#000" flood-opacity=".55"/></filter></defs><rect width="520" height="360" rx="38" fill="url(#bg)"/><circle cx="260" cy="184" r="132" fill="url(#gold)" filter="url(#s)"/><circle cx="260" cy="184" r="116" fill="#130D15"/><g transform="translate(260 184)"><path d="M0 0 0-112A112 112 0 0 1 34.6-106.5Z" fill="#D94163"/><path d="M0 0 34.6-106.5A112 112 0 0 1 65.8-90.6Z" fill="#101116"/><path d="M0 0 65.8-90.6A112 112 0 0 1 90.6-65.8Z" fill="#D94163"/><path d="M0 0 90.6-65.8A112 112 0 0 1 106.5-34.6Z" fill="#101116"/><path d="M0 0 106.5-34.6A112 112 0 0 1 112 0Z" fill="#19A26D"/><path d="M0 0 112 0A112 112 0 0 1 106.5 34.6Z" fill="#101116"/><path d="M0 0 106.5 34.6A112 112 0 0 1 90.6 65.8Z" fill="#D94163"/><path d="M0 0 90.6 65.8A112 112 0 0 1 65.8 90.6Z" fill="#101116"/><path d="M0 0 65.8 90.6A112 112 0 0 1 34.6 106.5Z" fill="#D94163"/><path d="M0 0 34.6 106.5A112 112 0 0 1 0 112Z" fill="#101116"/><path d="M0 0 0 112A112 112 0 0 1-34.6 106.5Z" fill="#D94163"/><path d="M0 0-34.6 106.5A112 112 0 0 1-65.8 90.6Z" fill="#101116"/><path d="M0 0-65.8 90.6A112 112 0 0 1-90.6 65.8Z" fill="#D94163"/><path d="M0 0-90.6 65.8A112 112 0 0 1-106.5 34.6Z" fill="#101116"/><path d="M0 0-106.5 34.6A112 112 0 0 1-112 0Z" fill="#D94163"/><path d="M0 0-112 0A112 112 0 0 1-106.5-34.6Z" fill="#101116"/><path d="M0 0-106.5-34.6A112 112 0 0 1-90.6-65.8Z" fill="#D94163"/><path d="M0 0-90.6-65.8A112 112 0 0 1-65.8-90.6Z" fill="#101116"/><path d="M0 0-65.8-90.6A112 112 0 0 1-34.6-106.5Z" fill="#D94163"/><path d="M0 0-34.6-106.5A112 112 0 0 1 0-112Z" fill="#101116"/></g><circle cx="260" cy="184" r="61" fill="#090B12" stroke="#E6C36B" stroke-width="7"/><circle cx="260" cy="184" r="18" fill="url(#gold)"/><circle cx="337" cy="111" r="9" fill="#FFF8DE" stroke="#D1A94D" stroke-width="3"/><path d="M260 35 276 70h-32Z" fill="#F7CF68"/><circle cx="98" cy="80" r="4" fill="#FF659D"/><circle cx="430" cy="258" r="5" fill="#7B78FF"/></svg>
