<svg xmlns="http://www.w3.org/2000/svg" viewBox="0 0 520 360" role="img" aria-labelledby="t"><title id="t">Arcade slot machine scene</title><defs><linearGradient id="bg" x1="0" y1="0" x2="1" y2="1"><stop stop-color="#160E31"/><stop offset="1" stop-color="#080B16"/></linearGradient><linearGradient id="cab" x1="0" y1="0" x2="1" y2="1"><stop stop-color="#8C75FF"/><stop offset="1" stop-color="#5634C7"/></linearGradient><filter id="s"><feDropShadow dx="0" dy="28" stdDeviation="20" flood-color="#000" flood-opacity=".55"/></filter></defs><rect width="520" height="360" rx="38" fill="url(#bg)"/><g filter="url(#s)"><path d="M128 68h264l28 226H100l28-226Z" fill="url(#cab)" stroke="#C5B8FF" stroke-width="4"/><rect x="137" y="89" width="246" height="140" rx="23" fill="#090D18" stroke="#F18ADE" stroke-width="3"/><g><rect x="153" y="107" width="66" height="104" rx="14" fill="#F8FAFF"/><rect x="227" y="107" width="66" height="104" rx="14" fill="#F8FAFF"/><rect x="301" y="107" width="66" height="104" rx="14" fill="#F8FAFF"/><text x="186" y="174" font-size="45" text-anchor="middle">7</text><text x="260" y="174" font-size="45" text-anchor="middle">★</text><text x="334" y="174" font-size="45" text-anchor="middle">7</text></g><rect x="165" y="247" width="190" height="28" rx="14" fill="#1B1532"/><circle cx="367" cy="261" r="18" fill="#FF6FA8" stroke="#FFD4E6" stroke-width="3"/></g><path d="M94 62 73 39m354 22 21-23" stroke="#7CF7E7" stroke-width="4" stroke-linecap="round"/><circle cx="75" cy="251" r="5" fill="#FF6FA8"/><circle cx="441" cy="108" r="4" fill="#7CF7E7"/></svg>
