<svg xmlns="http://www.w3.org/2000/svg" viewBox="0 0 520 360" role="img" aria-labelledby="t"><title id="t">Neon dice scene</title><defs><linearGradient id="bg" x1="0" x2="1" y1="0" y2="1"><stop stop-color="#091322"/><stop offset="1" stop-color="#07101A"/></linearGradient><linearGradient id="d" x1=".2" y1=".1" x2=".8" y2=".9"><stop stop-color="#F7FFFF"/><stop offset="1" stop-color="#9DD8D0"/></linearGradient><radialGradient id="glow"><stop stop-color="#65F6DC" stop-opacity=".65"/><stop offset="1" stop-color="#65F6DC" stop-opacity="0"/></radialGradient><filter id="blur"><feGaussianBlur stdDeviation="18"/></filter></defs><rect width="520" height="360" rx="38" fill="url(#bg)"/><ellipse cx="265" cy="287" rx="176" ry="52" fill="url(#glow)" filter="url(#blur)"/><path d="M112 300h300" stroke="#65F6DC" stroke-opacity=".16"/><g transform="translate(142 58) rotate(-10 116 116)"><rect x="12" y="12" width="215" height="215" rx="44" fill="#041119" stroke="#64F5DA" stroke-width="3" opacity=".45"/><rect width="215" height="215" rx="44" fill="url(#d)"/><g fill="#0D2630"><circle cx="54" cy="54" r="13"/><circle cx="161" cy="54" r="13"/><circle cx="107.5" cy="107.5" r="13"/><circle cx="54" cy="161" r="13"/><circle cx="161" cy="161" r="13"/></g><path d="M20 34C38 11 57 5 86 2" stroke="#fff" stroke-width="9" stroke-linecap="round" opacity=".55"/></g><circle cx="414" cy="78" r="5" fill="#FF6FAE"/><circle cx="96" cy="82" r="3" fill="#7E7BFF"/><path d="M397 108l16 16m0-16-16 16" stroke="#FF6FAE" stroke-width="3" stroke-linecap="round" opacity=".7"/></svg>
